<svg width="20" height="19" viewBox="0 0 20 19" fill="none" xmlns="http://www.w3.org/2000/svg">
<path d="M1.6665 9.04148C1.6665 5.89898 1.6665 4.32732 2.64317 3.35148C3.61984 2.37565 5.19067 2.37482 8.33317 2.37482H11.6665C14.809 2.37482 16.3807 2.37482 17.3565 3.35148C18.3323 4.32815 18.3332 5.89898 18.3332 9.04148V10.7082C18.3332 13.8507 18.3332 15.4223 17.3565 16.3982C16.3798 17.374 14.809 17.3748 11.6665 17.3748H8.33317C5.19067 17.3748 3.619 17.3748 2.64317 16.3982C1.66734 15.4215 1.6665 13.8507 1.6665 10.7082V9.04148Z" stroke="#ADA9BB" stroke-width="1.5"/>
<path d="M5.83325 2.37482V1.12482M14.1666 2.37482V1.12482M2.08325 6.54148H17.9166" stroke="#ADA9BB" stroke-width="1.5" stroke-linecap="round"/>
<path d="M14.9998 13.2081C14.9998 13.4292 14.912 13.6411 14.7557 13.7974C14.5994 13.9537 14.3874 14.0415 14.1664 14.0415C13.9454 14.0415 13.7334 13.9537 13.5772 13.7974C13.4209 13.6411 13.3331 13.4292 13.3331 13.2081C13.3331 12.9871 13.4209 12.7752 13.5772 12.6189C13.7334 12.4626 13.9454 12.3748 14.1664 12.3748C14.3874 12.3748 14.5994 12.4626 14.7557 12.6189C14.912 12.7752 14.9998 12.9871 14.9998 13.2081ZM14.9998 9.87481C14.9998 10.0958 14.912 10.3078 14.7557 10.4641C14.5994 10.6203 14.3874 10.7081 14.1664 10.7081C13.9454 10.7081 13.7334 10.6203 13.5772 10.4641C13.4209 10.3078 13.3331 10.0958 13.3331 9.87481C13.3331 9.65379 13.4209 9.44183 13.5772 9.28555C13.7334 9.12927 13.9454 9.04147 14.1664 9.04147C14.3874 9.04147 14.5994 9.12927 14.7557 9.28555C14.912 9.44183 14.9998 9.65379 14.9998 9.87481ZM10.8331 13.2081C10.8331 13.4292 10.7453 13.6411 10.589 13.7974C10.4327 13.9537 10.2208 14.0415 9.99976 14.0415C9.77874 14.0415 9.56678 13.9537 9.4105 13.7974C9.25422 13.6411 9.16642 13.4292 9.16642 13.2081C9.16642 12.9871 9.25422 12.7752 9.4105 12.6189C9.56678 12.4626 9.77874 12.3748 9.99976 12.3748C10.2208 12.3748 10.4327 12.4626 10.589 12.6189C10.7453 12.7752 10.8331 12.9871 10.8331 13.2081ZM10.8331 9.87481C10.8331 10.0958 10.7453 10.3078 10.589 10.4641C10.4327 10.6203 10.2208 10.7081 9.99976 10.7081C9.77874 10.7081 9.56678 10.6203 9.4105 10.4641C9.25422 10.3078 9.16642 10.0958 9.16642 9.87481C9.16642 9.65379 9.25422 9.44183 9.4105 9.28555C9.56678 9.12927 9.77874 9.04147 9.99976 9.04147C10.2208 9.04147 10.4327 9.12927 10.589 9.28555C10.7453 9.44183 10.8331 9.65379 10.8331 9.87481ZM6.66642 13.2081C6.66642 13.4292 6.57862 13.6411 6.42234 13.7974C6.26606 13.9537 6.0541 14.0415 5.83309 14.0415C5.61208 14.0415 5.40011 13.9537 5.24383 13.7974C5.08755 13.6411 4.99976 13.4292 4.99976 13.2081C4.99976 12.9871 5.08755 12.7752 5.24383 12.6189C5.40011 12.4626 5.61208 12.3748 5.83309 12.3748C6.0541 12.3748 6.26606 12.4626 6.42234 12.6189C6.57862 12.7752 6.66642 12.9871 6.66642 13.2081ZM6.66642 9.87481C6.66642 10.0958 6.57862 10.3078 6.42234 10.4641C6.26606 10.6203 6.0541 10.7081 5.83309 10.7081C5.61208 10.7081 5.40011 10.6203 5.24383 10.4641C5.08755 10.3078 4.99976 10.0958 4.99976 9.87481C4.99976 9.65379 5.08755 9.44183 5.24383 9.28555C5.40011 9.12927 5.61208 9.04147 5.83309 9.04147C6.0541 9.04147 6.26606 9.12927 6.42234 9.28555C6.57862 9.44183 6.66642 9.65379 6.66642 9.87481Z" fill="#ADA9BB"/>
</svg>
