<svg width="14" height="14" viewBox="0 0 14 14" fill="none" xmlns="http://www.w3.org/2000/svg">
<path d="M12.1893 5.79148C12.7127 6.43417 13.0274 7.29796 13.0274 8.39984C13.0274 9.42997 12.7523 10.252 12.2889 10.8798C12.1207 11.1076 12.1562 11.6384 12.2905 11.8876C12.6121 12.4839 12.0045 13.1373 11.3442 12.9859C10.8499 12.8726 10.3315 12.7193 9.87778 12.5137C9.71166 12.4384 9.52825 12.408 9.34702 12.4285C9.12188 12.4539 8.8921 12.4665 8.65943 12.4665C7.57962 12.4665 6.56222 12.1953 5.78145 11.6248M9.69411 5.06651C9.69411 7.87112 7.65534 9.1332 5.32618 9.1332C5.09351 9.1332 4.86373 9.12061 4.63859 9.09514C4.45736 9.07464 4.27395 9.10502 4.10783 9.18032C3.65412 9.38599 3.13567 9.53928 2.6414 9.65259C1.98107 9.80396 1.37356 9.15053 1.69509 8.55424C1.82944 8.30508 1.86487 7.77423 1.69675 7.54649C1.2333 6.91866 0.958252 6.09663 0.958252 5.06651C0.958252 2.26189 2.99702 0.999817 5.32618 0.999817C7.65534 0.999817 9.69411 2.26189 9.69411 5.06651Z" stroke="#64748B" stroke-width="1.5" stroke-linecap="round" stroke-linejoin="round"/>
</svg>
