<svg width="32" height="27" viewBox="0 0 32 27" fill="none" xmlns="http://www.w3.org/2000/svg">
<path d="M32 22.0334V26.0428H0V22.0481C1.86127 19.5607 4.27721 17.5419 7.05572 16.1522C9.83423 14.7625 12.8987 14.0402 16.0053 14.0428C22.544 14.0428 28.352 17.1814 32 22.0334ZM21.336 6.04143C21.336 7.45592 20.7741 8.81247 19.7739 9.81267C18.7737 10.8129 17.4172 11.3748 16.0027 11.3748C14.5882 11.3748 13.2316 10.8129 12.2314 9.81267C11.2312 8.81247 10.6693 7.45592 10.6693 6.04143C10.6693 4.62694 11.2312 3.27039 12.2314 2.2702C13.2316 1.27 14.5882 0.708099 16.0027 0.708099C17.4172 0.708099 18.7737 1.27 19.7739 2.2702C20.7741 3.27039 21.336 4.62694 21.336 6.04143Z" fill="#CBD5E1"/>
</svg>
