<svg width="18" height="20" viewBox="0 0 18 20" fill="none" xmlns="http://www.w3.org/2000/svg">
<path d="M1.5 8.3748C1.5 5.2323 1.5 3.66063 2.47667 2.6848C3.45333 1.70896 5.02417 1.70813 8.16667 1.70813H9.83333C12.9758 1.70813 14.5475 1.70813 15.5233 2.6848C16.4992 3.66146 16.5 5.2323 16.5 8.3748V11.7081C16.5 14.8506 16.5 16.4223 15.5233 17.3981C14.5467 18.374 12.9758 18.3748 9.83333 18.3748H8.16667C5.02417 18.3748 3.4525 18.3748 2.47667 17.3981C1.50083 16.4215 1.5 14.8506 1.5 11.7081V8.3748Z" stroke="#ADA9BB" stroke-width="1.5"/>
<path d="M5.6665 8.37482H12.3332M5.6665 11.7082H9.83317" stroke="#ADA9BB" stroke-width="1.5" stroke-linecap="round"/>
</svg>
