<svg width="20" height="20" viewBox="0 0 20 20" fill="none" xmlns="http://www.w3.org/2000/svg">
<path d="M4.68429 12.4689L5.60162 12.6126C6.2788 12.7186 6.7624 13.3388 6.71253 14.0376L6.64495 14.9847C6.62526 15.2606 6.77224 15.5204 7.01569 15.6405L7.69417 15.9748C7.93762 16.0949 8.2283 16.05 8.42712 15.8627L9.10889 15.2183C9.61152 14.7431 10.3871 14.7431 10.8904 15.2183L11.5722 15.8627C11.771 16.0506 12.061 16.0949 12.3051 15.9748L12.9849 15.6398C13.2277 15.5204 13.374 15.2613 13.3544 14.986L13.2868 14.0376C13.2369 13.3388 13.7205 12.7186 14.3977 12.6126L15.315 12.4689C15.5821 12.4273 15.7973 12.2226 15.8577 11.9527L16.025 11.2023C16.0854 10.9325 15.9784 10.6526 15.7553 10.4968L14.9895 9.96052C14.4246 9.56449 14.252 8.79122 14.5932 8.18376L15.0558 7.36082C15.1903 7.12119 15.168 6.82115 14.9994 6.60501L14.5302 6.00292C14.3616 5.78678 14.0807 5.6975 13.8222 5.77872L12.9351 6.05661C12.2795 6.26201 11.5807 5.91767 11.3287 5.2659L10.9888 4.38457C10.8891 4.12681 10.6457 3.95766 10.3747 3.95834L9.62268 3.96035C9.35168 3.96102 9.10889 4.13151 9.01046 4.38994L8.6791 5.2612C8.42975 5.917 7.72764 6.26403 7.07015 6.05729L6.14625 5.76731C5.88706 5.68542 5.60491 5.77537 5.43627 5.99285L4.97038 6.59562C4.80174 6.81377 4.7814 7.11448 4.91854 7.35411L5.39165 8.17906C5.74008 8.7872 5.56947 9.56784 5.00122 9.96589L4.24465 10.4962C4.02155 10.6526 3.91459 10.9325 3.97496 11.2016L4.14229 11.9521C4.202 12.2226 4.41722 12.4273 4.68429 12.4689Z" stroke="#ADA9BB" stroke-width="1.5" stroke-linecap="round" stroke-linejoin="round"/>
<path d="M11.3259 8.67411C12.058 9.40626 12.058 10.5937 11.3259 11.3259C10.5937 12.058 9.40624 12.058 8.67409 11.3259C7.94194 10.5937 7.94194 9.40626 8.67409 8.67411C9.40624 7.94196 10.5937 7.94196 11.3259 8.67411Z" stroke="#ADA9BB" stroke-width="1.5" stroke-linecap="round" stroke-linejoin="round"/>
</svg>
