<svg width="14" height="14" viewBox="0 0 14 14" fill="none" xmlns="http://www.w3.org/2000/svg">
<path d="M1.68447 9.51039L2.60181 9.65403C3.27898 9.76009 3.76259 10.3803 3.71272 11.0791L3.64513 12.0262C3.62544 12.3021 3.77243 12.5618 4.01587 12.682L4.69436 13.0162C4.9378 13.1364 5.22848 13.0914 5.42731 12.9041L6.10907 12.2598C6.61171 11.7845 7.38731 11.7845 7.89059 12.2598L8.57236 12.9041C8.77118 13.0921 9.06121 13.1364 9.30531 13.0162L9.98511 12.6813C10.2279 12.5618 10.3742 12.3027 10.3545 12.0275L10.287 11.0791C10.2371 10.3803 10.7207 9.76009 11.3979 9.65403L12.3152 9.51039C12.5823 9.46877 12.7975 9.26404 12.8579 8.99421L13.0252 8.24377C13.0855 7.97393 12.9786 7.69403 12.7555 7.5383L11.9897 7.00198C11.4248 6.60596 11.2522 5.83269 11.5934 5.22523L12.056 4.40229C12.1905 4.16266 12.1682 3.86262 11.9996 3.64648L11.5304 3.04438C11.3618 2.82825 11.0809 2.73897 10.8224 2.82019L9.93524 3.09808C9.27972 3.30348 8.58089 2.95914 8.32892 2.30737L7.98902 1.42604C7.88928 1.16828 7.64584 0.999132 7.37484 0.999804L6.62286 1.00182C6.35186 1.00249 6.10907 1.17298 6.01065 1.43141L5.67928 2.30267C5.42993 2.95847 4.72782 3.30549 4.07033 3.09875L3.14643 2.80878C2.88724 2.72689 2.60509 2.81684 2.43645 3.03432L1.97057 3.63708C1.80193 3.85524 1.78159 4.15595 1.91873 4.39558L2.39183 5.22053C2.74026 5.82867 2.56965 6.60931 2.00141 7.00735L1.24483 7.53763C1.02173 7.69403 0.914776 7.97393 0.975145 8.2431L1.14247 8.99354C1.20218 9.26405 1.41741 9.46877 1.68447 9.51039Z" stroke="#64748B" stroke-width="1.5" stroke-linecap="round" stroke-linejoin="round"/>
<path d="M8.32605 5.71558C9.0582 6.44772 9.0582 7.63521 8.32605 8.36736C7.59391 9.0995 6.40642 9.0995 5.67427 8.36736C4.94213 7.63521 4.94213 6.44772 5.67427 5.71558C6.40642 4.98343 7.59391 4.98343 8.32605 5.71558Z" stroke="#64748B" stroke-width="1.5" stroke-linecap="round" stroke-linejoin="round"/>
</svg>
