<svg width="14" height="14" viewBox="0 0 14 14" fill="none" xmlns="http://www.w3.org/2000/svg">
<path d="M3.4585 0.999817V2.24982M7.00016 0.999817V2.24982M10.5418 0.999817V2.24982M2.62516 13.0831H11.3752C12.2956 13.0831 13.0418 12.337 13.0418 11.4165V5.99982C13.0418 5.07934 12.2956 4.33315 11.3752 4.33315H2.62516C1.70469 4.33315 0.958496 5.07934 0.958496 5.99982V11.4165C0.958496 12.337 1.70469 13.0831 2.62516 13.0831ZM8.87516 8.70815C8.87516 9.74368 8.0357 10.5831 7.00016 10.5831C5.96463 10.5831 5.12516 9.74368 5.12516 8.70815C5.12516 7.67262 5.96463 6.83315 7.00016 6.83315C8.0357 6.83315 8.87516 7.67262 8.87516 8.70815Z" stroke="#64748B" stroke-width="1.5" stroke-linecap="round" stroke-linejoin="round"/>
</svg>
